<svg width="104" height="64" viewBox="0 0 104 64" fill="none" xmlns="http://www.w3.org/2000/svg">
<g clip-path="url(#clip0_1_863)">
<path d="M3.22183 8.96258C3.69608 8.10217 4.44929 7.67197 5.42569 7.65763C6.80659 7.65763 7.62955 8.67578 7.62955 10.626V15.7168C7.62955 18.255 6.2626 19.6316 3.79371 19.6316C1.32483 19.6316 0.0136719 18.3697 0.0136719 15.8315V11.5008H2.94286V16.1183C2.94286 16.778 3.22183 17.1078 3.76582 17.1078C4.24007 17.1078 4.56088 16.7923 4.56088 16.2474V10.8985C4.56088 10.3249 4.30981 10.0381 3.82161 10.0381C3.41711 10.0381 3.13814 10.2962 2.99865 10.8268L0.111311 10.2675L0.641354 0H7.37848L7.14135 2.48084H3.40316L3.08234 8.94824H3.22183V8.96258Z" fill="#FAFAFA"/>
<path d="M14.2416 19.6173L13.9207 15.4156H11.689L11.3682 19.6173H8.11816L10.3918 0H15.3156L17.5334 19.6173H14.2416ZM11.9261 12.7484H13.7255L13.2233 5.92247L12.9304 3.02577H12.7072L12.4422 5.92247L11.9261 12.7484Z" fill="#FAFAFA"/>
<path d="M7.95064 32.7102V37.9587C7.95064 40.5112 6.56974 41.8162 4.01717 41.8162C1.46459 41.8162 0 40.3105 0 37.4137V26.673C0 23.805 1.42275 22.2849 4.01717 22.2849C6.61159 22.2849 7.95064 23.5755 7.95064 26.1424V30.8173H4.92382V26.0564C4.92382 25.3824 4.56116 24.9378 4.05901 24.9378C3.51502 24.9378 3.13841 25.3824 3.13841 26.0564V38.0591C3.13841 38.733 3.50107 39.1632 4.05901 39.1632C4.61695 39.1632 4.92382 38.733 4.92382 38.0591V32.7102H7.96459H7.95064Z" fill="#FAFAFA"/>
<path d="M17.3797 26.6869V37.4277C17.3797 40.3244 15.9709 41.8301 13.3067 41.8301C10.6426 41.8301 9.28955 40.3244 9.28955 37.4277V26.6869C9.28955 23.8189 10.6983 22.2988 13.3067 22.2988C15.9151 22.2988 17.3797 23.8189 17.3797 26.6869ZM14.2413 26.0559C14.2413 25.382 13.8786 24.9374 13.3346 24.9374C12.7906 24.9374 12.414 25.382 12.414 26.0559V38.0586C12.414 38.7326 12.7767 39.1628 13.3346 39.1628C13.8926 39.1628 14.2413 38.7326 14.2413 38.0586V26.0559Z" fill="#FAFAFA"/>
<path d="M24.2565 32.868L24.0613 27.7199V22.4714H26.9626V41.6442H23.9776L21.8016 30.4159H21.6342L21.8295 35.4493V41.6442H18.9282V22.4714H22.0945L24.1031 32.8824H24.2565V32.868Z" fill="#FAFAFA"/>
<path d="M36.4056 28.9817H33.3648V25.8555C33.3648 25.2246 33.0719 24.9234 32.4721 24.9091C31.9281 24.9091 31.6073 25.2676 31.6073 25.7408V28.7522C31.6073 29.3976 31.8305 29.6987 32.4303 29.9568L33.9367 30.4731C34.8294 30.7742 35.4989 31.1901 35.9313 31.7063C36.3637 32.2369 36.573 33.0113 36.573 34.0294V37.9443C36.573 39.1345 36.2103 40.0809 35.5129 40.7549C34.8015 41.4433 33.8112 41.8018 32.5698 41.8018C30.0172 41.8018 28.5805 40.5398 28.5805 38.3745V34.4023H31.6352V38.1737C31.6352 38.733 31.956 39.1632 32.5558 39.1632C33.0998 39.1632 33.4485 38.776 33.4485 38.2311V34.56C33.4485 33.929 33.1277 33.4845 32.4721 33.1977L31.0912 32.7531C30.1846 32.4663 29.529 32.0505 29.1245 31.4912C28.706 30.9319 28.5107 30.1432 28.5107 29.1107V25.8842C28.5107 24.8087 28.8595 23.9483 29.5429 23.2743C30.2264 22.6147 31.2167 22.2705 32.514 22.2705C33.8112 22.2705 34.7318 22.5717 35.4013 23.1596C36.0708 23.7475 36.4056 24.5649 36.4056 25.5974V28.953V28.9817Z" fill="#FAFAFA"/>
<path d="M44.8303 22.4714V25.1674H42.4731V41.6442H39.4183V25.1674H37.061V22.4714H44.8164H44.8303Z" fill="#FAFAFA"/>
<path d="M53.9528 41.6442H50.8143L50.0053 34.7466H48.8058V41.6442H45.7231V22.4714H49.9077C52.3208 22.4714 53.6598 23.7764 53.6598 26.2286V30.631C53.6598 31.7638 53.339 32.6816 52.6974 33.3699L53.9667 41.6585L53.9528 41.6442ZM48.8197 32.2084H49.3916C50.1448 32.2084 50.5214 31.7208 50.5214 30.76V26.5154C50.5214 25.6119 50.1448 25.153 49.3916 25.153H48.8197V32.194V32.2084Z" fill="#FAFAFA"/>
<path d="M62.9494 22.4714V38.2456C62.9494 40.5974 61.5267 41.8306 59.002 41.8306C56.4773 41.8306 55.1104 40.6117 55.1104 38.2886V22.4714H58.179V38.1452C58.179 38.8335 58.458 39.1777 59.002 39.1777C59.546 39.1777 59.8528 38.8335 59.8668 38.1452V22.4714H62.9355H62.9494Z" fill="#FAFAFA"/>
<path d="M72.4204 32.7104V37.9589C72.4204 40.5115 71.0395 41.8164 68.4869 41.8164C65.9343 41.8164 64.4697 40.3107 64.4697 37.414V26.6732C64.4697 23.8052 65.8925 22.2852 68.4869 22.2852C71.0813 22.2852 72.4204 23.5758 72.4204 26.1427V30.8175H69.3796V26.0566C69.3796 25.3826 69.0169 24.9381 68.5148 24.9381C67.9708 24.9381 67.5942 25.3826 67.5942 26.0566V38.0593C67.5942 38.7333 67.9568 39.1635 68.5148 39.1635C69.0727 39.1635 69.3796 38.7333 69.3796 38.0593V32.7104H72.4204Z" fill="#FAFAFA"/>
<path d="M80.8313 22.4714V25.1674H78.474V41.6442H75.4193V25.1674H73.062V22.4714H80.8174H80.8313Z" fill="#FAFAFA"/>
<path d="M81.7241 22.4714H84.8067V41.6442H81.7241V22.4714Z" fill="#FAFAFA"/>
<path d="M94.4173 26.6869V37.4277C94.4173 40.3244 93.0085 41.8301 90.3443 41.8301C87.6801 41.8301 86.3271 40.3244 86.3271 37.4277V26.6869C86.3271 23.8189 87.7359 22.2988 90.3443 22.2988C92.9527 22.2988 94.4173 23.8189 94.4173 26.6869ZM91.2789 26.0559C91.2789 25.382 90.9162 24.9374 90.3722 24.9374C89.8282 24.9374 89.4516 25.382 89.4516 26.0559V38.0586C89.4516 38.7326 89.8143 39.1628 90.3722 39.1628C90.9302 39.1628 91.2789 38.7326 91.2789 38.0586V26.0559Z" fill="#FAFAFA"/>
<path d="M101.294 32.868L101.099 27.7199V22.4714H104V41.6442H101.015L98.8392 30.4159H98.6718L98.8671 35.4493V41.6442H95.9658V22.4714H99.1321L101.141 32.8824H101.294V32.868Z" fill="#FAFAFA"/>
<path d="M42.4314 0H19.6675V19.6173H42.4314V0Z" fill="#FAFAFA"/>
<path d="M104 0H45.7231V19.6173H104V0Z" fill="#FAFAFA"/>
<path d="M104 44.3975H0V64.0148H104V44.3975Z" fill="#FAFAFA"/>
</g>
<defs>
<clipPath id="clip0_1_863">
<rect width="104" height="64" fill="white"/>
</clipPath>
</defs>
</svg>
