<svg width="50" height="59" viewBox="0 0 50 59" fill="none" xmlns="http://www.w3.org/2000/svg">
<g clip-path="url(#clip0_37_10)">
<path d="M49.9182 55.2988L44.6005 58.9863L42.7598 58.3968L37.4557 56.7244L31.7017 54.9012L24.9932 52.7628L18.2983 54.9012L12.5852 56.697L7.22662 58.3968L5.3177 59L0 55.3262V55.3125L7.22662 53.0232L12.5852 51.3234L18.2983 49.5276L24.9932 47.3892L31.7017 49.5276L37.4557 51.3508L42.7598 53.0232L49.9182 55.2988Z" fill="#B8732A"/>
<path d="M7.22662 25.8673L12.5852 24.1675L18.2983 22.358L24.9932 20.2333V47.3892L18.2983 49.5276L12.5852 51.3234L7.22662 53.0232L0 55.3125V48.5544L7.22662 46.2514L12.5852 44.5653L18.2983 42.7558V29.1573L12.5852 30.9531L7.22662 32.6529L0 34.9421V7.92333L7.22662 5.63406L12.5852 3.93425L24.9932 0V7.00488L18.2983 9.12965L12.5852 10.9391L7.24025 12.6389H7.22662V25.8673Z" fill="#F4B01B"/>
<path d="M42.7597 5.63406L37.4557 3.94796L31.7016 2.12477L24.9932 0V7.00488L31.7016 9.12965L37.4557 10.9528L42.7325 12.6252H42.7597V25.8536L37.4557 24.1675L31.7016 22.3443L24.9932 20.2196V47.3755L31.7016 49.5002L37.4557 51.3234L42.7597 53.0095L49.9182 55.2851L49.9864 55.2303V7.92333L42.7597 5.63406ZM42.7597 46.2651L37.4557 44.579L31.7016 42.7558V29.1573L37.4557 30.9805L42.6507 32.6255L42.7597 32.5569V46.2651Z" fill="#DF9226"/>
<path d="M42.6643 32.6254L37.4557 36.2169L37.1557 36.4363L31.7017 34.709V29.1572L37.4557 30.9804L42.6643 32.6254Z" fill="#BE7129"/>
<path d="M42.7598 32.6529V46.2651L37.1558 44.4831V36.4364L42.6644 32.6255L42.7598 32.6529Z" fill="#F1B31C"/>
<path d="M18.2983 29.1572V34.709L12.5852 36.5048L7.22662 38.2046L5.50859 38.7529L0 34.9421L7.22662 32.6528L12.5852 30.953L18.2983 29.1572Z" fill="#BE7329"/>
<path d="M42.7596 12.639V25.8673L37.4556 24.1812V16.2853L42.746 12.6252L42.7596 12.639Z" fill="#F1B31C"/>
<path d="M42.7461 12.6252L37.4557 16.2853L37.4148 16.3127L31.7016 14.5033L24.9932 12.3785L18.2983 14.5033L12.5852 16.3127L12.5716 16.3264L7.24023 12.6389L12.5852 10.9391L18.2983 9.12965L24.9932 7.00488L31.7016 9.12965L37.4557 10.9528L42.7461 12.6252Z" fill="#BB7429"/>
<path d="M12.5852 16.3401V24.1675L7.22656 25.8673V12.6389H7.2402L12.5715 16.3264L12.5852 16.3401Z" fill="#DF9226"/>
</g>
<defs>
<clipPath id="clip0_37_10">
<rect width="50" height="59" fill="white"/>
</clipPath>
</defs>
</svg>
